<?xml version="1.0" encoding="UTF-8" standalone="no"?>
<!-- Created with Inkscape (http://www.inkscape.org/) -->

<svg
   width="200"
   height="200"
   viewBox="0 0 52.916668 52.916666"
   version="1.1"
   id="svg8"
   inkscape:version="1.2.2 (b0a8486541, 2022-12-01)"
   sodipodi:docname="anarchy.svg"
   xml:space="preserve"
   xmlns:inkscape="http://www.inkscape.org/namespaces/inkscape"
   xmlns:sodipodi="http://sodipodi.sourceforge.net/DTD/sodipodi-0.dtd"
   xmlns="http://www.w3.org/2000/svg"
   xmlns:svg="http://www.w3.org/2000/svg"
   xmlns:rdf="http://www.w3.org/1999/02/22-rdf-syntax-ns#"
   xmlns:cc="http://creativecommons.org/ns#"
   xmlns:dc="http://purl.org/dc/elements/1.1/"><defs
     id="defs2"><inkscape:path-effect
       effect="envelope"
       id="path-effect4658"
       is_visible="true"
       yy="true"
       xx="true"
       bendpath1="m -199.08406,108.42369 h 7.0057"
       bendpath2="m -192.07836,108.42369 v 6.75242"
       bendpath3="m -199.08406,115.17611 h 7.0057"
       bendpath4="m -199.08406,108.42369 v 6.75242" /><inkscape:path-effect
       effect="bend_path"
       id="path-effect4656"
       is_visible="true"
       bendpath="m -192.00142,114.60623 c 2.12577,-0.53066 4.48261,0.85111 7.0057,0"
       prop_scale="1"
       scale_y_rel="false"
       vertical="false"
       bendpath-nodetypes="cc" /><inkscape:path-effect
       effect="bounding_box"
       id="path-effect4654"
       is_visible="true"
       linkedpath=""
       visualbounds="false" /></defs><sodipodi:namedview
     id="base"
     pagecolor="#ffffff"
     bordercolor="#666666"
     borderopacity="1.0"
     inkscape:pageopacity="0.0"
     inkscape:pageshadow="2"
     inkscape:zoom="3.6203867"
     inkscape:cx="66.291261"
     inkscape:cy="104.68495"
     inkscape:document-units="px"
     inkscape:current-layer="g5175"
     showgrid="false"
     fit-margin-top="0"
     fit-margin-left="0"
     fit-margin-right="0"
     fit-margin-bottom="0"
     inkscape:window-width="1920"
     inkscape:window-height="1004"
     inkscape:window-x="0"
     inkscape:window-y="0"
     inkscape:window-maximized="1"
     showguides="false"
     inkscape:object-nodes="true"
     units="px"
     inkscape:snap-page="true"
     inkscape:showpageshadow="2"
     inkscape:pagecheckerboard="0"
     inkscape:deskcolor="#d1d1d1" /><metadata
     id="metadata5"><rdf:RDF><cc:Work
         rdf:about=""><dc:format>image/svg+xml</dc:format><dc:type
           rdf:resource="http://purl.org/dc/dcmitype/StillImage" /></cc:Work></rdf:RDF></metadata><g
     inkscape:label="Layer 1"
     inkscape:groupmode="layer"
     id="layer1"
     transform="translate(98.048812,-95.14345)"><g
       style="stroke-width:0.5"
       transform="matrix(2,0,0,2,-98.048812,95.143449)"
       id="g5175"><rect
         y="-1.110223e-16"
         x="0"
         height="26.458334"
         width="26.458334"
         id="rect5163"
         style="opacity:1;fill:#222222;fill-opacity:1;fill-rule:nonzero;stroke:none;stroke-width:0.25;stroke-linecap:butt;stroke-linejoin:round;stroke-miterlimit:4;stroke-dasharray:none;stroke-dashoffset:0;stroke-opacity:0.90944878;paint-order:normal"
         rx="1.984375"
         ry="1.984375" /><rect
         style="opacity:1;fill:#333333;fill-opacity:1;fill-rule:nonzero;stroke:none;stroke-width:0.25;stroke-linecap:butt;stroke-linejoin:round;stroke-miterlimit:4;stroke-dasharray:none;stroke-dashoffset:0;stroke-opacity:0.90944878;paint-order:normal"
         id="rect5165"
         width="23.8125"
         height="23.8125"
         x="1.322917"
         y="1.322917"
         rx="1.3229166"
         ry="1.3229166" /><path
         style="opacity:1;fill:#222222;fill-opacity:1;fill-rule:nonzero;stroke:none;stroke-width:0.24999997;stroke-linecap:butt;stroke-linejoin:round;stroke-miterlimit:4;stroke-dasharray:none;stroke-dashoffset:0;stroke-opacity:0.90944878;paint-order:normal"
         d="m 0.72760492,18.520836 v 4.167188 c 0,1.539081 1.23904398,2.778124 2.77812498,2.778124 H 22.952604 c 1.539081,0 2.778125,-1.239043 2.778125,-2.778124 v -4.167188 z"
         id="rect5205-3-6"
         inkscape:connector-curvature="0" /><text
         xml:space="preserve"
         style="font-size:4.76457px;fill:#222222;fill-opacity:1;stroke-width:0.19853"
         x="1.4922301"
         y="23.833714"
         id="text2040"><tspan
           sodipodi:role="line"
           id="tspan2038"
           style="font-style:normal;font-variant:normal;font-weight:bold;font-stretch:normal;font-family:'Gothic A1';-inkscape-font-specification:'Gothic A1 Bold';fill:#ffffff;fill-opacity:1;stroke-width:0.19853"
           x="1.4922301"
           y="23.833714">ANARCHY</tspan></text><path
         fill="currentColor"
         d="M 12.017389,1.8434658 11.551473,3.4804402 C 8.6448799,4.2248173 6.4641459,6.857057 6.4641459,10.0259 c 0,0.497424 0.054252,0.981407 0.1561209,1.447207 l -0.728565,0.168734 0.2428975,1.225884 0.8664433,-0.200735 c 0.3255285,0.763462 0.7878074,1.45365 1.3548483,2.041275 l -0.8351947,2.934353 1.1083745,0.368669 0.7020525,-2.466537 c 1.1058618,0.780355 2.4531398,1.23745 3.8980908,1.23745 1.898662,0 3.628522,-0.789234 4.863756,-2.064154 l 1.345151,2.326745 0.983448,-0.664487 -1.533929,-2.653239 c 0.698282,-1.06053 1.106634,-2.330576 1.106634,-3.701165 0,-0.1230373 -0.0035,-0.245176 -0.01004,-0.3665453 l 0.5824,-0.1349581 -0.242897,-1.2258848 -0.522459,0.1210134 C 19.075743,5.4504233 16.385731,3.2696016 13.229217,3.2696016 c -0.127835,0 -0.254818,0.00392 -0.38097,0.010929 L 12.017434,1.8434912 Z m 1.555322,2.6903301 c 2.492346,0.146515 4.512842,1.8757438 5.093349,4.1487864 L 16.289526,9.2331148 Z M 12.37929,4.8349387 15.08351,9.5124576 10.763214,10.513364 12.379322,4.8349387 Z M 11.143216,4.9148663 9.4641931,10.814265 7.754501,11.210344 A 4.6614484,5.039363 0 0 1 7.6238702,10.025901 c 0,-2.302469 1.4438575,-4.2965178 3.5193128,-5.1110347 z m 7.690007,5.0111541 c 5.83e-4,0.033231 0.0013,0.066515 0.0013,0.099891 0,0.908686 -0.225179,1.769175 -0.624962,2.528319 l -1.266354,-2.190401 z m -3.096015,0.7171776 1.728117,2.989209 c -1.022329,1.158566 -2.532483,1.896048 -4.23612,1.896048 -1.351464,0 -2.58103,-0.464339 -3.5420871,-1.234592 l 0.6853011,-2.407889 z m -6.6637458,1.543675 -0.326237,1.146378 C 8.524236,13.041823 8.3300465,12.728213 8.1687803,12.396424 Z"
         id="path400"
         style="fill:#ffffff;stroke-width:0.0167475" /></g></g></svg>
