<?xml version="1.0" encoding="UTF-8" standalone="no"?>
<!-- Created with Inkscape (http://www.inkscape.org/) -->

<svg
   width="200"
   height="200"
   viewBox="0 0 52.916668 52.916666"
   version="1.1"
   id="svg8"
   inkscape:version="1.2.2 (b0a8486541, 2022-12-01)"
   sodipodi:docname="collectivism.svg"
   xml:space="preserve"
   xmlns:inkscape="http://www.inkscape.org/namespaces/inkscape"
   xmlns:sodipodi="http://sodipodi.sourceforge.net/DTD/sodipodi-0.dtd"
   xmlns="http://www.w3.org/2000/svg"
   xmlns:svg="http://www.w3.org/2000/svg"
   xmlns:rdf="http://www.w3.org/1999/02/22-rdf-syntax-ns#"
   xmlns:cc="http://creativecommons.org/ns#"
   xmlns:dc="http://purl.org/dc/elements/1.1/"><defs
     id="defs2"><inkscape:path-effect
       effect="envelope"
       id="path-effect4658"
       is_visible="true"
       yy="true"
       xx="true"
       bendpath1="m -199.08406,108.42369 h 7.0057"
       bendpath2="m -192.07836,108.42369 v 6.75242"
       bendpath3="m -199.08406,115.17611 h 7.0057"
       bendpath4="m -199.08406,108.42369 v 6.75242" /><inkscape:path-effect
       effect="bend_path"
       id="path-effect4656"
       is_visible="true"
       bendpath="m -192.00142,114.60623 c 2.12577,-0.53066 4.48261,0.85111 7.0057,0"
       prop_scale="1"
       scale_y_rel="false"
       vertical="false"
       bendpath-nodetypes="cc" /><inkscape:path-effect
       effect="bounding_box"
       id="path-effect4654"
       is_visible="true"
       linkedpath=""
       visualbounds="false" /></defs><sodipodi:namedview
     id="base"
     pagecolor="#ffffff"
     bordercolor="#666666"
     borderopacity="1.0"
     inkscape:pageopacity="0.0"
     inkscape:pageshadow="2"
     inkscape:zoom="3.6203867"
     inkscape:cx="87.00728"
     inkscape:cy="88.388348"
     inkscape:document-units="px"
     inkscape:current-layer="g5175"
     showgrid="false"
     fit-margin-top="0"
     fit-margin-left="0"
     fit-margin-right="0"
     fit-margin-bottom="0"
     inkscape:window-width="1920"
     inkscape:window-height="1004"
     inkscape:window-x="0"
     inkscape:window-y="0"
     inkscape:window-maximized="1"
     showguides="false"
     inkscape:object-nodes="true"
     units="px"
     inkscape:snap-page="true"
     inkscape:showpageshadow="2"
     inkscape:pagecheckerboard="0"
     inkscape:deskcolor="#d1d1d1" /><metadata
     id="metadata5"><rdf:RDF><cc:Work
         rdf:about=""><dc:format>image/svg+xml</dc:format><dc:type
           rdf:resource="http://purl.org/dc/dcmitype/StillImage" /></cc:Work></rdf:RDF></metadata><g
     inkscape:label="Layer 1"
     inkscape:groupmode="layer"
     id="layer1"
     transform="translate(98.048812,-95.14345)"><g
       style="stroke-width:0.5"
       transform="matrix(2,0,0,2,-98.048812,95.143449)"
       id="g5175"><rect
         y="-1.110223e-16"
         x="0"
         height="26.458334"
         width="26.458334"
         id="rect5163"
         style="opacity:1;fill:#222222;fill-opacity:1;fill-rule:nonzero;stroke:none;stroke-width:0.25;stroke-linecap:butt;stroke-linejoin:round;stroke-miterlimit:4;stroke-dasharray:none;stroke-dashoffset:0;stroke-opacity:0.90944878;paint-order:normal"
         rx="1.984375"
         ry="1.984375" /><rect
         style="opacity:1;fill:#aa0000;fill-opacity:1;fill-rule:nonzero;stroke:none;stroke-width:0.25;stroke-linecap:butt;stroke-linejoin:round;stroke-miterlimit:4;stroke-dasharray:none;stroke-dashoffset:0;stroke-opacity:0.90944878;paint-order:normal"
         id="rect5165"
         width="23.8125"
         height="23.8125"
         x="1.322917"
         y="1.322917"
         rx="1.3229166"
         ry="1.3229166" /><path
         style="opacity:1;fill:#222222;fill-opacity:1;fill-rule:nonzero;stroke:none;stroke-width:0.24999997;stroke-linecap:butt;stroke-linejoin:round;stroke-miterlimit:4;stroke-dasharray:none;stroke-dashoffset:0;stroke-opacity:0.90944878;paint-order:normal"
         d="m 0.72760492,18.520836 v 4.167188 c 0,1.539081 1.23904398,2.778124 2.77812498,2.778124 H 22.952604 c 1.539081,0 2.778125,-1.239043 2.778125,-2.778124 v -4.167188 z"
         id="rect5205-3-6"
         inkscape:connector-curvature="0" /><text
         xml:space="preserve"
         style="font-size:3.26616px;fill:#222222;fill-opacity:1;stroke-width:0.136093"
         x="1.3861436"
         y="23.25498"
         id="text2040"><tspan
           sodipodi:role="line"
           id="tspan2038"
           style="font-style:normal;font-variant:normal;font-weight:bold;font-stretch:normal;font-family:'Gothic A1';-inkscape-font-specification:'Gothic A1 Bold';fill:#ffffff;fill-opacity:1;stroke-width:0.136093"
           x="1.3861436"
           y="23.25498">COLLECTIVISM</tspan></text><path
         fill="currentColor"
         d="m 17.863216,8.1798278 h -4.192157 v 1.5444786 c 0,1.0949256 -0.890832,1.9857586 -1.985758,1.9857586 -1.094924,0 -1.9857582,-0.890833 -1.9857582,-1.9857586 V 6.3705813 L 7.9096023,7.4462003 C 7.3773088,7.76337 7.051865,8.3397915 7.051865,8.957583 v 1.304533 l -2.2063979,1.274195 c -0.4219738,0.242703 -0.5681475,0.783272 -0.3226859,1.205244 l 2.2063982,3.822586 c 0.2427037,0.421973 0.7832712,0.565389 1.2052447,0.322686 l 2.8517699,-1.646525 h 3.767425 c 0.973573,0 1.765118,-0.791546 1.765118,-1.765118 h 0.44128 c 0.488166,0 0.882559,-0.394394 0.882559,-0.88256 v -1.765119 h 0.22064 c 0.366814,0 0.66192,-0.295106 0.66192,-0.661919 V 8.8417473 c 0,-0.3668137 -0.295106,-0.6619195 -0.66192,-0.6619195 M 21.936778,7.1483366 19.730381,3.3257519 C 19.487676,2.9037785 18.947108,2.7603625 18.525136,3.0030664 l -2.851771,1.6465244 h -2.818672 c -0.33096,0 -0.653646,0.093772 -0.934962,0.2675259 L 10.995802,5.493538 c -0.259251,0.159964 -0.413699,0.4440378 -0.413699,0.7474174 v 3.483351 c 0,0.6095176 0.493681,1.1031986 1.103198,1.1031986 0.609518,0 1.103199,-0.493681 1.103199,-1.1031986 v -2.427038 h 5.074716 c 0.852221,0 1.544479,0.6922575 1.544479,1.5444789 v 0.7860291 l 2.206397,-1.2741948 c 0.421975,-0.2454619 0.565391,-0.7832713 0.322686,-1.205245"
         id="path411"
         style="fill:#ffffff;stroke-width:0.01379" /></g></g></svg>
