<?xml version="1.0" encoding="UTF-8" standalone="no"?>
<!-- Created with Inkscape (http://www.inkscape.org/) -->

<svg
   width="200"
   height="200"
   viewBox="0 0 52.916668 52.916666"
   version="1.1"
   id="svg8"
   inkscape:version="1.2.2 (b0a8486541, 2022-12-01)"
   sodipodi:docname="conservative.svg"
   xml:space="preserve"
   xmlns:inkscape="http://www.inkscape.org/namespaces/inkscape"
   xmlns:sodipodi="http://sodipodi.sourceforge.net/DTD/sodipodi-0.dtd"
   xmlns="http://www.w3.org/2000/svg"
   xmlns:svg="http://www.w3.org/2000/svg"
   xmlns:rdf="http://www.w3.org/1999/02/22-rdf-syntax-ns#"
   xmlns:cc="http://creativecommons.org/ns#"
   xmlns:dc="http://purl.org/dc/elements/1.1/"><defs
     id="defs2"><inkscape:path-effect
       effect="envelope"
       id="path-effect4658"
       is_visible="true"
       yy="true"
       xx="true"
       bendpath1="m -199.08406,108.42369 h 7.0057"
       bendpath2="m -192.07836,108.42369 v 6.75242"
       bendpath3="m -199.08406,115.17611 h 7.0057"
       bendpath4="m -199.08406,108.42369 v 6.75242" /><inkscape:path-effect
       effect="bend_path"
       id="path-effect4656"
       is_visible="true"
       bendpath="m -192.00142,114.60623 c 2.12577,-0.53066 4.48261,0.85111 7.0057,0"
       prop_scale="1"
       scale_y_rel="false"
       vertical="false"
       bendpath-nodetypes="cc" /><inkscape:path-effect
       effect="bounding_box"
       id="path-effect4654"
       is_visible="true"
       linkedpath=""
       visualbounds="false" /></defs><sodipodi:namedview
     id="base"
     pagecolor="#ffffff"
     bordercolor="#666666"
     borderopacity="1.0"
     inkscape:pageopacity="0.0"
     inkscape:pageshadow="2"
     inkscape:zoom="3.6203867"
     inkscape:cx="76.649271"
     inkscape:cy="99.989319"
     inkscape:document-units="px"
     inkscape:current-layer="g5175"
     showgrid="false"
     fit-margin-top="0"
     fit-margin-left="0"
     fit-margin-right="0"
     fit-margin-bottom="0"
     inkscape:window-width="1920"
     inkscape:window-height="1012"
     inkscape:window-x="0"
     inkscape:window-y="0"
     inkscape:window-maximized="1"
     showguides="false"
     inkscape:object-nodes="true"
     units="px"
     inkscape:snap-page="true"
     inkscape:showpageshadow="2"
     inkscape:pagecheckerboard="0"
     inkscape:deskcolor="#d1d1d1" /><metadata
     id="metadata5"><rdf:RDF><cc:Work
         rdf:about=""><dc:format>image/svg+xml</dc:format><dc:type
           rdf:resource="http://purl.org/dc/dcmitype/StillImage" /></cc:Work></rdf:RDF></metadata><g
     inkscape:label="Layer 1"
     inkscape:groupmode="layer"
     id="layer1"
     transform="translate(98.048812,-95.14345)"><g
       style="stroke-width:0.5"
       transform="matrix(2,0,0,2,-98.048812,95.143449)"
       id="g5175"><rect
         y="-1.110223e-16"
         x="0"
         height="26.458334"
         width="26.458334"
         id="rect5163"
         style="opacity:1;fill:#222222;fill-opacity:1;fill-rule:nonzero;stroke:none;stroke-width:0.25;stroke-linecap:butt;stroke-linejoin:round;stroke-miterlimit:4;stroke-dasharray:none;stroke-dashoffset:0;stroke-opacity:0.90944878;paint-order:normal"
         rx="1.984375"
         ry="1.984375" /><rect
         style="opacity:1;fill:#202d6e;fill-opacity:1;fill-rule:nonzero;stroke:none;stroke-width:0.25;stroke-linecap:butt;stroke-linejoin:round;stroke-miterlimit:4;stroke-dasharray:none;stroke-dashoffset:0;stroke-opacity:0.90944878;paint-order:normal"
         id="rect5165"
         width="23.8125"
         height="23.8125"
         x="1.322917"
         y="1.322917"
         rx="1.3229166"
         ry="1.3229166" /><path
         style="opacity:1;fill:#222222;fill-opacity:1;fill-rule:nonzero;stroke:none;stroke-width:0.24999997;stroke-linecap:butt;stroke-linejoin:round;stroke-miterlimit:4;stroke-dasharray:none;stroke-dashoffset:0;stroke-opacity:0.90944878;paint-order:normal"
         d="m 0.72760492,18.520836 v 4.167188 c 0,1.539081 1.23904398,2.778124 2.77812498,2.778124 H 22.952604 c 1.539081,0 2.778125,-1.239043 2.778125,-2.778124 v -4.167188 z"
         id="rect5205-3-6"
         inkscape:connector-curvature="0" /><text
         xml:space="preserve"
         style="font-size:3.1189px;fill:#222222;fill-opacity:1;stroke-width:0.129958"
         x="1.3749096"
         y="23.198107"
         id="text2040"><tspan
           sodipodi:role="line"
           id="tspan2038"
           style="font-style:normal;font-variant:normal;font-weight:bold;font-stretch:normal;font-family:'Gothic A1';-inkscape-font-specification:'Gothic A1 Bold';fill:#ffffff;fill-opacity:1;stroke-width:0.129958"
           x="1.3749096"
           y="23.198107">CONSERVATIVE</tspan></text><path
         fill="currentColor"
         d="m 8.7980571,1.6419405 v 0.6266301 c 3.1395909,0.6641275 5.8518439,0.5209501 8.8624809,0.012953 V 1.6419359 Z m 4.7663769,3.9289837 c 0.721175,-0.096072 1.558382,-0.439959 2.40069,-0.7801206 0.820934,-0.3315985 1.650506,-0.7175639 2.453381,-0.6756341 0.402535,0.021002 0.821604,0.1876757 1.140839,0.3813102 1.068786,0.6537374 1.532018,2.1015993 0.826929,3.2102291 C 19.83032,8.58078 18.623459,8.9576213 17.712857,8.3455147 17.020168,7.8798995 16.724206,6.8917694 17.251636,6.1618436 17.634212,5.6324405 18.424872,5.4083463 18.988385,5.863312 a 1.0009391,1.0009391 0 0 1 0.359414,0.6118838 C 19.389583,6.7170147 19.331041,7.002848 19.13145,7.210037 19.006705,7.3394738 18.850867,7.4159591 18.668218,7.4338333 18.485607,7.4516313 18.249671,7.380584 18.113232,7.1929072 18.283631,7.087042 18.713126,6.7453147 18.687656,6.5895517 18.675225,6.5174977 18.624723,6.4312933 18.56764,6.3852677 18.340344,6.2017621 17.973332,6.3071442 17.794444,6.5547714 c -0.282259,0.3906204 -0.11011,0.9636272 0.292052,1.2339707 0.570626,0.3836185 1.36795,0.1346125 1.734626,-0.442007 0.48833,-0.7677596 0.15528,-1.80925 -0.611213,-2.2780673 -0.29101,-0.1779943 -0.610618,-0.2836359 -0.931156,-0.2736941 -0.307505,0.00946 -0.653403,0.082404 -0.99945,0.2239081 -0.387268,0.1583326 -0.702816,0.4777544 -0.923672,0.8512451 -0.71179,1.2034357 -0.188234,2.7821112 1.004291,3.4705181 1.439297,0.830876 3.308424,0.2013046 4.113905,-1.2262997 0.95387,-1.6905746 0.21471,-3.8681009 -1.457209,-4.7962411 C 19.375019,2.9597697 18.889817,2.8177831 18.183946,2.8810503 16.793431,3.0057201 15.601911,3.3912014 13.564285,3.4228529 L 12.894014,3.4224871 C 10.852887,3.3888161 9.7394909,3.0231845 8.2759902,2.8727091 7.628954,2.8062013 6.9453518,3.0426601 6.44168,3.3181418 4.7697982,4.246282 4.0306374,6.4238083 4.9845089,8.1143819 5.789952,9.5419872 7.6591167,10.171558 9.0984133,9.3406825 10.290938,8.6522757 10.814495,7.0735993 10.102704,5.8701635 9.8818866,5.4966738 9.5663374,5.177252 9.1790696,5.0189194 8.8330231,4.8774168 8.4871257,4.8044324 8.1796194,4.7949737 7.8590811,4.7850732 7.5395108,4.8907477 7.2485009,5.0686678 6.4820448,5.5374851 6.1489942,6.5790131 6.6373248,7.3468469 7.0040006,7.9233922 7.8013637,8.1723982 8.3719879,7.7887797 8.7741508,7.5184362 8.9463732,6.9454661 8.6640772,6.554809 8.4851896,6.3071808 8.1181783,6.2017996 7.8908444,6.3853795 7.8337605,6.4313712 7.7832283,6.517572 7.7707912,6.5896259 7.767766,6.8486113 8.107417,7.0197165 8.3452143,7.1929824 8.2087765,7.3806582 7.9728411,7.4517074 7.7902293,7.4339075 7.6075798,7.4160316 7.4517416,7.339548 7.3269966,7.2101113 7.1274053,7.0029232 7.0688674,6.717089 7.1106487,6.4752334 A 1.0009391,1.0009391 0 0 1 7.4700631,5.8633496 C 8.0335754,5.4083839 8.8242349,5.6324781 9.2068111,6.1619179 9.7342407,6.8918446 9.4382782,7.880048 8.7455896,8.3456265 7.8350998,8.9575846 6.6282392,8.5807424 6.0722861,7.7066712 5.3672336,6.5981165 5.8304663,5.1502171 6.8992519,4.4964421 7.2481654,4.2704118 7.6172989,4.1448097 8.0400915,4.1151319 c 0.8019802,-0.056231 1.632484,0.3440732 2.4533435,0.6756341 0.842308,0.3402367 1.679515,0.6841229 2.40069,0.7801958 z m -2.840724,0.036494 c 0.335435,0.6077137 0.434746,1.2774634 0.339605,1.9180203 h 4.332004 c -0.09518,-0.6405569 0.0041,-1.3103818 0.339604,-1.9180203 -0.712909,0.2885147 -1.444696,0.5656354 -2.170489,0.6411152 H 12.894162 C 12.168407,6.1729414 11.436545,5.8958967 10.72371,5.607382 Z m 0.164664,2.5882916 a 3.3848722,3.3848722 0 0 1 -0.536813,0.9381196 l 0.485947,1.5078511 0.74739,-2.4459707 z m 1.602136,0 0.738788,2.4179677 0.738789,-2.4179677 z m 2.383188,0 0.738788,2.4179677 0.463605,-1.517495 A 3.3848722,3.3848722 0 0 1 15.570222,8.1957103 Z m -2.835994,0.811774 -0.821455,2.6885337 h 1.64291 z m 2.383188,0 -0.821455,2.6885337 h 1.64291 z m 2.190522,0.6305766 -0.628789,2.0579571 h 1.378042 l -0.07112,-1.637065 A 3.5003079,3.5003079 0 0 1 17.025238,9.9216583 3.276884,3.276884 0 0 1 16.611382,9.6380591 Z M 9.8174659,9.6617031 A 3.276884,3.276884 0 0 1 9.4333631,9.9216198 3.5003079,3.5003079 0 0 1 9.1690901,10.058914 l -0.071161,1.637101 H 10.473103 Z M 9.0687724,12.366287 8.812952,18.249783 h 0.8134865 l 0.1399378,-5.036347 0.6699737,0.01862 -0.139342,5.017729 h 0.96333 l 0.06986,-5.031693 0.670271,0.0093 -0.06974,5.022383 h 0.963441 v -5.027036 h 0.670272 v 5.027039 h 0.963441 l -0.06974,-5.022384 0.670272,-0.0093 0.06989,5.031692 h 0.96333 l -0.139379,-5.017729 0.669973,-0.01862 0.139938,5.036346 h 0.813487 l -0.25582,-5.883498 z"
         id="path298"
         style="stroke-width:0.0186186;fill:#ffffff;fill-opacity:1" /></g></g></svg>
