<?xml version="1.0" encoding="UTF-8" standalone="no"?>
<!-- Created with Inkscape (http://www.inkscape.org/) -->

<svg
   width="200"
   height="200"
   viewBox="0 0 52.916668 52.916666"
   version="1.1"
   id="svg8"
   inkscape:version="1.2.2 (b0a8486541, 2022-12-01)"
   sodipodi:docname="interventionism.svg"
   xmlns:inkscape="http://www.inkscape.org/namespaces/inkscape"
   xmlns:sodipodi="http://sodipodi.sourceforge.net/DTD/sodipodi-0.dtd"
   xmlns="http://www.w3.org/2000/svg"
   xmlns:svg="http://www.w3.org/2000/svg"
   xmlns:rdf="http://www.w3.org/1999/02/22-rdf-syntax-ns#"
   xmlns:cc="http://creativecommons.org/ns#"
   xmlns:dc="http://purl.org/dc/elements/1.1/">
  <defs
     id="defs2">
    <inkscape:path-effect
       effect="envelope"
       id="path-effect4658"
       is_visible="true"
       yy="true"
       xx="true"
       bendpath1="m -199.08406,108.42369 h 7.0057"
       bendpath2="m -192.07836,108.42369 v 6.75242"
       bendpath3="m -199.08406,115.17611 h 7.0057"
       bendpath4="m -199.08406,108.42369 v 6.75242" />
    <inkscape:path-effect
       effect="bend_path"
       id="path-effect4656"
       is_visible="true"
       bendpath="m -192.00142,114.60623 c 2.12577,-0.53066 4.48261,0.85111 7.0057,0"
       prop_scale="1"
       scale_y_rel="false"
       vertical="false"
       bendpath-nodetypes="cc" />
    <inkscape:path-effect
       effect="bounding_box"
       id="path-effect4654"
       is_visible="true"
       linkedpath=""
       visualbounds="false" />
  </defs>
  <sodipodi:namedview
     id="base"
     pagecolor="#ffffff"
     bordercolor="#666666"
     borderopacity="1.0"
     inkscape:pageopacity="0.0"
     inkscape:pageshadow="2"
     inkscape:zoom="3.6203867"
     inkscape:cx="77.339805"
     inkscape:cy="104.96116"
     inkscape:document-units="px"
     inkscape:current-layer="g5175"
     showgrid="false"
     fit-margin-top="0"
     fit-margin-left="0"
     fit-margin-right="0"
     fit-margin-bottom="0"
     inkscape:window-width="1920"
     inkscape:window-height="1004"
     inkscape:window-x="0"
     inkscape:window-y="0"
     inkscape:window-maximized="1"
     showguides="false"
     inkscape:object-nodes="true"
     units="px"
     inkscape:snap-page="true"
     inkscape:showpageshadow="2"
     inkscape:pagecheckerboard="0"
     inkscape:deskcolor="#d1d1d1" />
  <metadata
     id="metadata5">
    <rdf:RDF>
      <cc:Work
         rdf:about="">
        <dc:format>image/svg+xml</dc:format>
        <dc:type
           rdf:resource="http://purl.org/dc/dcmitype/StillImage" />
      </cc:Work>
    </rdf:RDF>
  </metadata>
  <g
     inkscape:label="Layer 1"
     inkscape:groupmode="layer"
     id="layer1"
     transform="translate(98.048812,-95.14345)">
    <g
       style="stroke-width:0.5"
       transform="matrix(2,0,0,2,-98.048812,95.143449)"
       id="g5175">
      <rect
         y="-1.110223e-16"
         x="0"
         height="26.458334"
         width="26.458334"
         id="rect5163"
         style="opacity:1;fill:#222222;fill-opacity:1;fill-rule:nonzero;stroke:none;stroke-width:0.25;stroke-linecap:butt;stroke-linejoin:round;stroke-miterlimit:4;stroke-dasharray:none;stroke-dashoffset:0;stroke-opacity:0.90944878;paint-order:normal"
         rx="1.984375"
         ry="1.984375" />
      <rect
         style="opacity:1;fill:#93a7ac;fill-opacity:1;fill-rule:nonzero;stroke:none;stroke-width:0.25;stroke-linecap:butt;stroke-linejoin:round;stroke-miterlimit:4;stroke-dasharray:none;stroke-dashoffset:0;stroke-opacity:0.90944878;paint-order:normal"
         id="rect5165"
         width="23.8125"
         height="23.8125"
         x="1.322917"
         y="1.322917"
         rx="1.3229166"
         ry="1.3229166" />
      <path
         style="opacity:1;fill:#222222;fill-opacity:1;fill-rule:nonzero;stroke:none;stroke-width:0.24999997;stroke-linecap:butt;stroke-linejoin:round;stroke-miterlimit:4;stroke-dasharray:none;stroke-dashoffset:0;stroke-opacity:0.90944878;paint-order:normal"
         d="m 0.72760492,18.520836 v 4.167188 c 0,1.539081 1.23904398,2.778124 2.77812498,2.778124 H 22.952604 c 1.539081,0 2.778125,-1.239043 2.778125,-2.778124 v -4.167188 z"
         id="rect5205-3-6"
         inkscape:connector-curvature="0" />
      <text
         xml:space="preserve"
         style="font-size:2.60688px;fill:#222222;fill-opacity:1;stroke-width:0.108623"
         x="1.2080024"
         y="23.000349"
         id="text2040"><tspan
           sodipodi:role="line"
           id="tspan2038"
           style="font-style:normal;font-variant:normal;font-weight:bold;font-stretch:normal;font-family:'Gothic A1';-inkscape-font-specification:'Gothic A1 Bold';fill:#ffffff;fill-opacity:1;stroke-width:0.108623"
           x="1.2080024"
           y="23.000349">INTERVENTIONISM</tspan></text>
      <path
         fill="currentColor"
         d="M 11.339534,2.5871228 8.3649873,3.6609694 V 6.5691198 L 11.339534,5.4979287 Z M 22.423259,2.9722205 14.26539,5.4005478 h -0.05754 c 0,0.044264 0,0.1460718 0.05312,0.2788632 0.05312,0.1504982 0.154924,0.3142757 0.265584,0.4205094 0.09295,0.092951 0.172631,0.1239395 0.230174,0.1372189 L 22.733113,3.8601579 Z M 12.153993,3.7185127 V 6.0645088 L 10.020464,6.8347036 9.5158534,7.9280269 H 17.408139 L 17.0496,6.4319009 14.854101,7.0825826 h -0.06196 c -0.349686,0 -0.64183,-0.1726294 -0.854297,-0.3806704 C 13.725373,6.4938702 13.566021,6.2371393 13.468641,5.967128 13.366834,5.7015432 13.313717,5.4182536 13.411099,5.1216837 13.495206,4.8472468 13.791769,4.6082208 14.114898,4.5683829 L 16.434335,3.8778634 16.390071,3.7185127 Z M 6.1194701,8.7646173 5.645402,10.446654 h 4.1006247 l -0.2390262,2.527478 h 7.4363655 l -0.2346,-2.527478 h 3.709331 l -0.4692,-1.6820367 z m -2.060935,2.5186267 -1.1433413,3.372923 h 5.5914388 l 0.3142747,-3.372923 z m 13.5753509,0 0.314275,3.372923 h 5.594979 l -1.150866,-3.372923 z m -8.1578706,2.527479 0.1327924,1.686461 h 7.1840602 l 0.128366,-1.686461 z m -4.8779013,1.682036 0.4776101,1.682034 H 8.8961569 L 8.7633645,15.492759 Z m 13.0401979,0 -0.128366,1.682034 h 3.815563 l 0.473626,-1.682034 z"
         id="path400"
         style="stroke-width:0.022132" />
    </g>
  </g>
</svg>
