<?xml version="1.0" encoding="UTF-8" standalone="no"?>
<!-- Created with Inkscape (http://www.inkscape.org/) -->

<svg
   width="200"
   height="200"
   viewBox="0 0 52.916668 52.916666"
   version="1.1"
   id="svg8"
   inkscape:version="1.2.2 (b0a8486541, 2022-12-01)"
   sodipodi:docname="markets.svg"
   xmlns:inkscape="http://www.inkscape.org/namespaces/inkscape"
   xmlns:sodipodi="http://sodipodi.sourceforge.net/DTD/sodipodi-0.dtd"
   xmlns="http://www.w3.org/2000/svg"
   xmlns:svg="http://www.w3.org/2000/svg"
   xmlns:rdf="http://www.w3.org/1999/02/22-rdf-syntax-ns#"
   xmlns:cc="http://creativecommons.org/ns#"
   xmlns:dc="http://purl.org/dc/elements/1.1/">
  <defs
     id="defs2">
    <inkscape:path-effect
       effect="envelope"
       id="path-effect4658"
       is_visible="true"
       yy="true"
       xx="true"
       bendpath1="m -199.08406,108.42369 h 7.0057"
       bendpath2="m -192.07836,108.42369 v 6.75242"
       bendpath3="m -199.08406,115.17611 h 7.0057"
       bendpath4="m -199.08406,108.42369 v 6.75242" />
    <inkscape:path-effect
       effect="bend_path"
       id="path-effect4656"
       is_visible="true"
       bendpath="m -192.00142,114.60623 c 2.12577,-0.53066 4.48261,0.85111 7.0057,0"
       prop_scale="1"
       scale_y_rel="false"
       vertical="false"
       bendpath-nodetypes="cc" />
    <inkscape:path-effect
       effect="bounding_box"
       id="path-effect4654"
       is_visible="true"
       linkedpath=""
       visualbounds="false" />
  </defs>
  <sodipodi:namedview
     id="base"
     pagecolor="#ffffff"
     bordercolor="#666666"
     borderopacity="1.0"
     inkscape:pageopacity="0.0"
     inkscape:pageshadow="2"
     inkscape:zoom="3.6203867"
     inkscape:cx="67.119902"
     inkscape:cy="86.454853"
     inkscape:document-units="px"
     inkscape:current-layer="g5175"
     showgrid="false"
     fit-margin-top="0"
     fit-margin-left="0"
     fit-margin-right="0"
     fit-margin-bottom="0"
     inkscape:window-width="1920"
     inkscape:window-height="1004"
     inkscape:window-x="0"
     inkscape:window-y="0"
     inkscape:window-maximized="1"
     showguides="false"
     inkscape:object-nodes="true"
     units="px"
     inkscape:snap-page="true"
     inkscape:showpageshadow="2"
     inkscape:pagecheckerboard="0"
     inkscape:deskcolor="#d1d1d1" />
  <metadata
     id="metadata5">
    <rdf:RDF>
      <cc:Work
         rdf:about="">
        <dc:format>image/svg+xml</dc:format>
        <dc:type
           rdf:resource="http://purl.org/dc/dcmitype/StillImage" />
      </cc:Work>
    </rdf:RDF>
  </metadata>
  <g
     inkscape:label="Layer 1"
     inkscape:groupmode="layer"
     id="layer1"
     transform="translate(98.048812,-95.14345)">
    <g
       style="stroke-width:0.5"
       transform="matrix(2,0,0,2,-98.048812,95.143449)"
       id="g5175">
      <rect
         y="-1.110223e-16"
         x="0"
         height="26.458334"
         width="26.458334"
         id="rect5163"
         style="opacity:1;fill:#222222;fill-opacity:1;fill-rule:nonzero;stroke:none;stroke-width:0.25;stroke-linecap:butt;stroke-linejoin:round;stroke-miterlimit:4;stroke-dasharray:none;stroke-dashoffset:0;stroke-opacity:0.90944878;paint-order:normal"
         rx="1.984375"
         ry="1.984375" />
      <rect
         style="opacity:1;fill:#ffd42a;fill-opacity:1;fill-rule:nonzero;stroke:none;stroke-width:0.25;stroke-linecap:butt;stroke-linejoin:round;stroke-miterlimit:4;stroke-dasharray:none;stroke-dashoffset:0;stroke-opacity:0.90944878;paint-order:normal"
         id="rect5165"
         width="23.8125"
         height="23.8125"
         x="1.322917"
         y="1.322917"
         rx="1.3229166"
         ry="1.3229166" />
      <path
         style="opacity:1;fill:#222222;fill-opacity:1;fill-rule:nonzero;stroke:none;stroke-width:0.24999997;stroke-linecap:butt;stroke-linejoin:round;stroke-miterlimit:4;stroke-dasharray:none;stroke-dashoffset:0;stroke-opacity:0.90944878;paint-order:normal"
         d="m 0.72760492,18.520836 v 4.167188 c 0,1.539081 1.23904398,2.778124 2.77812498,2.778124 H 22.952604 c 1.539081,0 2.778125,-1.239043 2.778125,-2.778124 v -4.167188 z"
         id="rect5205-3-6"
         inkscape:connector-curvature="0" />
      <text
         xml:space="preserve"
         style="font-size:4.96103px;fill:#222222;fill-opacity:1;stroke-width:0.206716"
         x="1.0760897"
         y="23.909595"
         id="text2040"><tspan
           sodipodi:role="line"
           id="tspan2038"
           style="font-style:normal;font-variant:normal;font-weight:bold;font-stretch:normal;font-family:'Gothic A1';-inkscape-font-specification:'Gothic A1 Bold';fill:#ffffff;fill-opacity:1;stroke-width:0.206716"
           x="1.0760897"
           y="23.909595">MARKETS</tspan></text>
      <path
         fill="currentColor"
         d="m 15.507037,6.2384356 a 0.33399779,0.33399779 0 0 1 -0.454246,0 L 13.149016,4.7488049 A 1.6699891,1.6699891 0 0 0 10.924587,4.8690467 L 6.3354605,9.4581748 a 0.99531347,0.99531347 0 0 0 0,1.4161502 1.0019934,1.0019934 0 0 0 1.4161489,0 L 11.8865,6.7127121 a 0.33399779,0.33399779 0 0 1 0.44758,0 l 1.923828,1.5430701 a 1.683349,1.683349 0 0 0 2.304588,-0.1937208 l 2.311265,-2.4916236 a 0.15363898,0.15363898 0 0 1 0.120226,-0.053438 0.14695905,0.14695905 0 0 1 0.120226,0.046758 l 0.948548,0.9485555 a 0.49431675,0.49431675 0 0 0 0.547761,0.106881 0.49431675,0.49431675 0 0 0 0.307257,-0.4609157 V 2.4842997 a 0.50767669,0.50767669 0 0 0 -0.514358,-0.500998 h -3.673975 a 0.49431675,0.49431675 0 0 0 -0.460912,0.3072772 0.49431675,0.49431675 0 0 0 0.106896,0.5477565 l 1.068795,1.0687927 a 0.16699893,0.16699893 0 0 1 0,0.2337981 z m 3.727419,9.7727754 h -4.675972 a 1.0019935,1.0019935 0 1 0 0,2.003987 h 4.675972 a 1.0019935,1.0019935 0 1 0 0,-2.003987 M 7.2105343,18.015198 H 11.8865 a 1.0019935,1.0019935 0 1 0 0,-2.003987 H 7.2105343 a 1.0019935,1.0019935 0 1 0 0,2.003987 m 4.0079737,-3.00598 a 1.0019935,1.0019935 0 1 0 0,-2.003987 H 6.542537 a 1.0019935,1.0019935 0 1 0 0,2.003987 z m 9.685935,-1.001993 a 1.0019934,1.0019934 0 0 0 -1.001996,-1.001994 h -4.675965 a 1.0019935,1.0019935 0 1 0 0,2.003987 h 4.675965 a 1.0019934,1.0019934 0 0 0 1.001996,-1.001993 m -6.345959,-2.003988 h 4.675972 a 1.0019934,1.0019934 0 1 0 0,-2.0039863 h -4.675972 a 1.0019934,1.0019934 0 1 0 0,2.0039863"
         id="path526"
         style="stroke-width:0.333998" />
    </g>
  </g>
</svg>
