<?xml version="1.0" encoding="UTF-8" standalone="no"?>
<!-- Created with Inkscape (http://www.inkscape.org/) -->

<svg
   width="200"
   height="200"
   viewBox="0 0 52.916668 52.916666"
   version="1.1"
   id="svg8"
   inkscape:version="1.2.2 (b0a8486541, 2022-12-01)"
   sodipodi:docname="nature.svg"
   xml:space="preserve"
   xmlns:inkscape="http://www.inkscape.org/namespaces/inkscape"
   xmlns:sodipodi="http://sodipodi.sourceforge.net/DTD/sodipodi-0.dtd"
   xmlns="http://www.w3.org/2000/svg"
   xmlns:svg="http://www.w3.org/2000/svg"
   xmlns:rdf="http://www.w3.org/1999/02/22-rdf-syntax-ns#"
   xmlns:cc="http://creativecommons.org/ns#"
   xmlns:dc="http://purl.org/dc/elements/1.1/"><defs
     id="defs2"><inkscape:path-effect
       effect="envelope"
       id="path-effect4658"
       is_visible="true"
       yy="true"
       xx="true"
       bendpath1="m -199.08406,108.42369 h 7.0057"
       bendpath2="m -192.07836,108.42369 v 6.75242"
       bendpath3="m -199.08406,115.17611 h 7.0057"
       bendpath4="m -199.08406,108.42369 v 6.75242" /><inkscape:path-effect
       effect="bend_path"
       id="path-effect4656"
       is_visible="true"
       bendpath="m -192.00142,114.60623 c 2.12577,-0.53066 4.48261,0.85111 7.0057,0"
       prop_scale="1"
       scale_y_rel="false"
       vertical="false"
       bendpath-nodetypes="cc" /><inkscape:path-effect
       effect="bounding_box"
       id="path-effect4654"
       is_visible="true"
       linkedpath=""
       visualbounds="false" /></defs><sodipodi:namedview
     id="base"
     pagecolor="#ffffff"
     bordercolor="#666666"
     borderopacity="1.0"
     inkscape:pageopacity="0.0"
     inkscape:pageshadow="2"
     inkscape:zoom="3.6203867"
     inkscape:cx="51.375727"
     inkscape:cy="99.989319"
     inkscape:document-units="px"
     inkscape:current-layer="g5175"
     showgrid="false"
     fit-margin-top="0"
     fit-margin-left="0"
     fit-margin-right="0"
     fit-margin-bottom="0"
     inkscape:window-width="1920"
     inkscape:window-height="1004"
     inkscape:window-x="0"
     inkscape:window-y="0"
     inkscape:window-maximized="1"
     showguides="false"
     inkscape:object-nodes="true"
     units="px"
     inkscape:snap-page="true"
     inkscape:showpageshadow="2"
     inkscape:pagecheckerboard="0"
     inkscape:deskcolor="#d1d1d1" /><metadata
     id="metadata5"><rdf:RDF><cc:Work
         rdf:about=""><dc:format>image/svg+xml</dc:format><dc:type
           rdf:resource="http://purl.org/dc/dcmitype/StillImage" /></cc:Work></rdf:RDF></metadata><g
     inkscape:label="Layer 1"
     inkscape:groupmode="layer"
     id="layer1"
     transform="translate(98.048812,-95.14345)"><g
       style="stroke-width:0.5"
       transform="matrix(2,0,0,2,-98.048812,95.143449)"
       id="g5175"><rect
         y="-1.110223e-16"
         x="0"
         height="26.458334"
         width="26.458334"
         id="rect5163"
         style="opacity:1;fill:#222222;fill-opacity:1;fill-rule:nonzero;stroke:none;stroke-width:0.25;stroke-linecap:butt;stroke-linejoin:round;stroke-miterlimit:4;stroke-dasharray:none;stroke-dashoffset:0;stroke-opacity:0.90944878;paint-order:normal"
         rx="1.984375"
         ry="1.984375" /><rect
         style="opacity:1;fill:#5aa02c;fill-opacity:1;fill-rule:nonzero;stroke:none;stroke-width:0.25;stroke-linecap:butt;stroke-linejoin:round;stroke-miterlimit:4;stroke-dasharray:none;stroke-dashoffset:0;stroke-opacity:0.909449;paint-order:normal"
         id="rect5165"
         width="23.8125"
         height="23.8125"
         x="1.2863762"
         y="1.2863762"
         rx="1.3229166"
         ry="1.3229166" /><path
         style="opacity:1;fill:#222222;fill-opacity:1;fill-rule:nonzero;stroke:none;stroke-width:0.24999997;stroke-linecap:butt;stroke-linejoin:round;stroke-miterlimit:4;stroke-dasharray:none;stroke-dashoffset:0;stroke-opacity:0.90944878;paint-order:normal"
         d="m 0.72760492,18.520836 v 4.167188 c 0,1.539081 1.23904398,2.778124 2.77812498,2.778124 H 22.952604 c 1.539081,0 2.778125,-1.239043 2.778125,-2.778124 v -4.167188 z"
         id="rect5205-3-6"
         inkscape:connector-curvature="0" /><text
         xml:space="preserve"
         style="font-size:5.52302px;fill:#222222;fill-opacity:1;stroke-width:0.230133"
         x="1.840628"
         y="24.108627"
         id="text2040"><tspan
           sodipodi:role="line"
           id="tspan2038"
           style="font-style:normal;font-variant:normal;font-weight:bold;font-stretch:normal;font-family:'Gothic A1';-inkscape-font-specification:'Gothic A1 Bold';fill:#ffffff;fill-opacity:1;stroke-width:0.230133"
           x="1.840628"
           y="24.108627">NATURE</tspan></text><path
         fill="currentColor"
         d="m 21.523406,16.173361 0.0045,-0.0026 -1.446291,-2.504854 h 0.569186 v -0.0026 c 0.11872,0 0.215008,-0.09609 0.215008,-0.21481 0,-0.03672 -0.0117,-0.06968 -0.02779,-0.09986 l 0.0038,-0.0023 -1.337497,-2.316649 h 0.32539 v -0.0018 a 0.15346376,0.15346376 0 0 0 0.153546,-0.153286 0.15088287,0.15088287 0 0 0 -0.01985,-0.07127 l 0.0026,-0.0017 -1.945991,-3.3708421 -0.002,0.00119 A 0.26205972,0.26205972 0 0 0 17.782532,7.2824857 c -0.104029,0 -0.192179,0.061739 -0.235259,0.1492896 l -9.92e-4,-5.958e-4 -1.945992,3.3706445 3.96e-4,1.98e-4 a 0.14889757,0.14889757 0 0 0 -0.02085,0.07266 c 0,0.08458 0.06869,0.153265 0.153465,0.153265 v 0.0018 h 0.329758 l -1.337498,2.316649 5.96e-4,1.98e-4 a 0.2104419,0.2104419 0 0 0 -0.02919,0.101853 c 0,0.11872 0.09628,0.21481 0.215009,0.21481 v 0.0026 h 0.574547 l -0.416914,0.722253 -1.667454,-2.888218 h 0.803254 v -0.0036 c 0.167559,0 0.303353,-0.135993 0.303353,-0.303353 0,-0.05162 -0.01411,-0.09966 -0.03693,-0.142341 l 0.003,-0.0018 L 12.587412,7.7796 h 0.4592 V 7.7772 a 0.2163978,0.2163978 0 0 0 0.216596,-0.2167911 c 0,-0.036932 -0.01171,-0.070083 -0.02799,-0.1004569 l 0.0038,-0.00225 -2.746465,-4.7561858 -9.92e-4,5.956e-4 A 0.37125128,0.37125128 0 0 0 10.157398,2.4916276 c -0.150486,0 -0.2795297,0.089736 -0.3382956,0.2183832 l -2.7411049,4.7476486 5.958e-4,3.977e-4 a 0.2104419,0.2104419 0 0 0 -0.029384,0.1024377 0.2163978,0.2163978 0 0 0 0.2163979,0.2167957 v 0.0024 H 7.7311606 L 5.8659703,11.010173 A 0.29779514,0.29779514 0 0 0 5.803235,11.19282 c 0,0.16756 0.1359935,0.303355 0.3033541,0.303355 v 0.0036 h 0.810796 l -2.0130947,3.48718 c -0.047647,0.06234 -0.076831,0.13937 -0.076831,0.223942 0,0.204883 0.1663682,0.37125 0.3714498,0.37125 v 0.0042 H 9.125635 v 1.673609 c 0,0.161803 0.1312362,0.29323 0.2930312,0.29323 h 1.4657468 c 0.161803,0 0.29323,-0.131237 0.29323,-0.29323 v -1.673642 h 3.200305 l -0.337303,0.584275 5.96e-4,3.97e-4 c -0.02065,0.03752 -0.03573,0.07862 -0.03573,0.124678 0,0.145327 0.11773,0.263053 0.263053,0.263053 v 0.003 h 2.782597 v 0.782408 c 0,0.114744 0.09312,0.207663 0.207663,0.207663 h 1.038708 c 0.114758,0 0.207662,-0.09291 0.207662,-0.207663 v -0.782408 h 2.789348 v -0.003 c 0.145328,0 0.263251,-0.11773 0.263251,-0.263053 a 0.25808912,0.25808912 0 0 0 -0.03435,-0.122487"
         id="path534"
         style="stroke-width:0.099265" /></g></g></svg>
