<?xml version="1.0" encoding="UTF-8" standalone="no"?>
<!-- Created with Inkscape (http://www.inkscape.org/) -->

<svg
   width="200"
   height="200"
   viewBox="0 0 52.916668 52.916666"
   version="1.1"
   id="svg8"
   inkscape:version="1.2.2 (b0a8486541, 2022-12-01)"
   sodipodi:docname="progressive.svg"
   xml:space="preserve"
   xmlns:inkscape="http://www.inkscape.org/namespaces/inkscape"
   xmlns:sodipodi="http://sodipodi.sourceforge.net/DTD/sodipodi-0.dtd"
   xmlns="http://www.w3.org/2000/svg"
   xmlns:svg="http://www.w3.org/2000/svg"
   xmlns:rdf="http://www.w3.org/1999/02/22-rdf-syntax-ns#"
   xmlns:cc="http://creativecommons.org/ns#"
   xmlns:dc="http://purl.org/dc/elements/1.1/"><defs
     id="defs2"><inkscape:path-effect
       effect="envelope"
       id="path-effect4658"
       is_visible="true"
       yy="true"
       xx="true"
       bendpath1="m -199.08406,108.42369 h 7.0057"
       bendpath2="m -192.07836,108.42369 v 6.75242"
       bendpath3="m -199.08406,115.17611 h 7.0057"
       bendpath4="m -199.08406,108.42369 v 6.75242" /><inkscape:path-effect
       effect="bend_path"
       id="path-effect4656"
       is_visible="true"
       bendpath="m -192.00142,114.60623 c 2.12577,-0.53066 4.48261,0.85111 7.0057,0"
       prop_scale="1"
       scale_y_rel="false"
       vertical="false"
       bendpath-nodetypes="cc" /><inkscape:path-effect
       effect="bounding_box"
       id="path-effect4654"
       is_visible="true"
       linkedpath=""
       visualbounds="false" /></defs><sodipodi:namedview
     id="base"
     pagecolor="#ffffff"
     bordercolor="#666666"
     borderopacity="1.0"
     inkscape:pageopacity="0.0"
     inkscape:pageshadow="2"
     inkscape:zoom="3.6203867"
     inkscape:cx="76.649271"
     inkscape:cy="99.989319"
     inkscape:document-units="px"
     inkscape:current-layer="g5175"
     showgrid="false"
     fit-margin-top="0"
     fit-margin-left="0"
     fit-margin-right="0"
     fit-margin-bottom="0"
     inkscape:window-width="1920"
     inkscape:window-height="1012"
     inkscape:window-x="0"
     inkscape:window-y="0"
     inkscape:window-maximized="1"
     showguides="false"
     inkscape:object-nodes="true"
     units="px"
     inkscape:snap-page="true"
     inkscape:showpageshadow="2"
     inkscape:pagecheckerboard="0"
     inkscape:deskcolor="#d1d1d1" /><metadata
     id="metadata5"><rdf:RDF><cc:Work
         rdf:about=""><dc:format>image/svg+xml</dc:format><dc:type
           rdf:resource="http://purl.org/dc/dcmitype/StillImage" /></cc:Work></rdf:RDF></metadata><g
     inkscape:label="Layer 1"
     inkscape:groupmode="layer"
     id="layer1"
     transform="translate(98.048812,-95.14345)"><g
       style="stroke-width:0.5"
       transform="matrix(2,0,0,2,-98.048812,95.143449)"
       id="g5175"><rect
         y="-1.110223e-16"
         x="0"
         height="26.458334"
         width="26.458334"
         id="rect5163"
         style="opacity:1;fill:#222222;fill-opacity:1;fill-rule:nonzero;stroke:none;stroke-width:0.25;stroke-linecap:butt;stroke-linejoin:round;stroke-miterlimit:4;stroke-dasharray:none;stroke-dashoffset:0;stroke-opacity:0.90944878;paint-order:normal"
         rx="1.984375"
         ry="1.984375" /><rect
         style="opacity:1;fill:#638c35;fill-opacity:1;fill-rule:nonzero;stroke:none;stroke-width:0.25;stroke-linecap:butt;stroke-linejoin:round;stroke-miterlimit:4;stroke-dasharray:none;stroke-dashoffset:0;stroke-opacity:0.90944878;paint-order:normal"
         id="rect5165"
         width="23.8125"
         height="23.8125"
         x="1.322917"
         y="1.322917"
         rx="1.3229166"
         ry="1.3229166" /><path
         style="opacity:1;fill:#222222;fill-opacity:1;fill-rule:nonzero;stroke:none;stroke-width:0.24999997;stroke-linecap:butt;stroke-linejoin:round;stroke-miterlimit:4;stroke-dasharray:none;stroke-dashoffset:0;stroke-opacity:0.90944878;paint-order:normal"
         d="m 0.72760492,18.520836 v 4.167188 c 0,1.539081 1.23904398,2.778124 2.77812498,2.778124 H 22.952604 c 1.539081,0 2.778125,-1.239043 2.778125,-2.778124 v -4.167188 z"
         id="rect5205-3-6"
         inkscape:connector-curvature="0" /><text
         xml:space="preserve"
         style="font-size:3.34829px;fill:#222222;fill-opacity:1;stroke-width:0.139516"
         x="1.312328"
         y="23.286703"
         id="text2040"><tspan
           sodipodi:role="line"
           id="tspan2038"
           style="font-style:normal;font-variant:normal;font-weight:bold;font-stretch:normal;font-family:'Gothic A1';-inkscape-font-specification:'Gothic A1 Bold';fill:#ffffff;fill-opacity:1;stroke-width:0.139516"
           x="1.312328"
           y="23.286703">PROGRESSIVE</tspan></text><path
         fill="currentColor"
         d="M 4.8854384,18.008147 H 21.618119 V 12.564251 L 4.8854384,16.66535 Z m 0,-2.345001 16.7326806,-3.285969 v -0.20161 L 4.8854384,14.523924 Z M 16.111585,2.3766621 C 15.766799,2.199381 15.038075,1.9546962 14.667282,1.8873052 14.45476,1.848708 14.184355,1.8215884 13.876757,1.8056507 a 14.540916,14.540916 0 0 0 -1.05785,-0.011837 C 11.258553,1.8276549 9.7818121,1.955157 8.8964949,2.4529097 8.4776045,2.6883595 8.2016065,2.972747 7.9463021,3.2344835 7.1921312,4.0076699 6.6149686,4.9452794 6.1921635,5.9027414 5.2861526,7.9541299 4.1466472,10.539057 5.3826268,11.65759 q 0.022639,0.02376 0.047264,0.04726 c 0.00402,0.0032 0.00635,0.007 0.010569,0.01036 h 0.00139 a 1.2024219,1.2024219 0 0 0 0.5464031,0.296133 l -0.00782,2.78e-4 c 0,0 0.1311589,0.0878 0.2323764,0.226224 l -1.3274189,0.08166 v 0.738231 l 1.207458,-0.08752 c -0.2013358,0.260901 0.1714048,0.687061 1.2133286,0.587513 3.580982,-0.343669 14.3119,-1.447941 14.3119,-1.447941 V 11.130793 L 5.3526621,10.866542 a 1.5659448,1.5659448 0 0 1 -0.060961,-0.238528 h 3.529806 c 0.9954948,0 2.9350289,-0.6817445 3.8933309,-1.0061202 1.053378,-0.3562512 3.048839,-1.5421749 4.13046,-1.740156 0.201336,-0.036906 0.611556,0.016698 0.812335,0.054239 0.262294,0.049208 0.643434,0.1507323 1.072111,0.2768372 V 6.1851971 C 18.319522,5.9975584 17.952925,5.8513157 17.691468,5.7886765 c -0.182609,-0.043902 -0.565978,-0.063752 -0.744665,0 -1.235138,0.438745 -3.254928,2.5343152 -4.435258,3.1537022 C 11.602737,9.4194314 9.6998362,10.301394 8.708256,10.301394 H 5.2598235 C 5.2467183,9.7823959 5.3834152,9.1627278 5.5937049,8.5145387 c -0.00359,0.01543 -0.00867,0.03215 -0.01226,0.047538 C 5.654433,8.7186643 5.754541,8.8173833 5.8610767,8.8109511 6.053746,8.7999599 6.1902061,8.4614093 6.1669971,8.0551042 6.1528349,7.8031524 6.0789166,7.5897935 5.9799292,7.46312 6.081432,7.2111702 6.1868453,6.9608988 6.2922776,6.7170595 6.3062284,6.8546443 6.396021,7.0120709 6.5081539,7.0120709 H 9.092244 c 0.3612862,0 1.092806,-0.5055758 1.405155,-0.7239696 0.856796,-0.5995325 2.473915,-2.1738661 3.312253,-2.8105902 0.01733,-0.013106 0.03803,-0.028515 0.05929,-0.043332 0.547803,0.4429386 1.102593,1.1445362 1.102593,1.1445362 0,0 1.020662,-0.6803458 1.399842,-0.7477389 0.289421,-0.051174 0.899021,0.021539 1.162157,0.1770064 0.501661,0.2964128 3.288484,2.1330409 4.084599,2.6587524 V 6.2917454 c 0,0 -4.036783,-3.1587352 -5.506534,-3.9151425"
         id="path5764"
         style="stroke-width:0.139817;fill:#ffffff;fill-opacity:1" /><path
         fill="currentColor"
         d="M 17.229876,8.4874825 V 6.620653 A 26.285502,26.285502 0 0 0 16.620278,6.31725 v 1.9803618 c 0.199095,0.060411 0.404347,0.124712 0.609598,0.1898792 m 0.762001,0.2480351 V 7.023333 Q 17.759502,6.8972259 17.517899,6.770544 v 1.8097855 q 0.241603,0.078019 0.473978,0.1551924 m 0.854839,0.287463 c 0.14289,0.048934 0.271244,0.092837 0.38058,0.1311377 V 7.7137317 C 19.117676,7.6505303 18.989048,7.5772673 18.846716,7.4967373 Z M 18.652101,8.9569934 V 7.3871324 C 18.513968,7.3096842 18.366317,7.2277337 18.211959,7.1430141 v 1.6654938 q 0.231815,0.077744 0.440142,0.1484918 M 7.6907564,7.6801821 C 7.2374709,8.1379404 7.0954176,8.7357966 7.3728129,9.0162696 7.6510473,9.2970193 8.2427504,9.1530087 8.6954779,8.6958085 9.1484822,8.2380502 9.2905355,7.640194 9.0128612,7.3597232 8.7351849,7.0792504 8.1432028,7.2229841 7.6907564,7.6801821"
         id="path5766"
         style="stroke-width:0.139817;fill:#ffffff;fill-opacity:1" /></g></g></svg>
