<?xml version="1.0" encoding="UTF-8" standalone="no"?>
<!-- Created with Inkscape (http://www.inkscape.org/) -->

<svg
   width="200"
   height="200"
   viewBox="0 0 52.916668 52.916666"
   version="1.1"
   id="svg8"
   inkscape:version="1.2.2 (b0a8486541, 2022-12-01)"
   sodipodi:docname="propertarianism.svg"
   xml:space="preserve"
   xmlns:inkscape="http://www.inkscape.org/namespaces/inkscape"
   xmlns:sodipodi="http://sodipodi.sourceforge.net/DTD/sodipodi-0.dtd"
   xmlns="http://www.w3.org/2000/svg"
   xmlns:svg="http://www.w3.org/2000/svg"
   xmlns:rdf="http://www.w3.org/1999/02/22-rdf-syntax-ns#"
   xmlns:cc="http://creativecommons.org/ns#"
   xmlns:dc="http://purl.org/dc/elements/1.1/"><defs
     id="defs2"><inkscape:path-effect
       effect="envelope"
       id="path-effect4658"
       is_visible="true"
       yy="true"
       xx="true"
       bendpath1="m -199.08406,108.42369 h 7.0057"
       bendpath2="m -192.07836,108.42369 v 6.75242"
       bendpath3="m -199.08406,115.17611 h 7.0057"
       bendpath4="m -199.08406,108.42369 v 6.75242" /><inkscape:path-effect
       effect="bend_path"
       id="path-effect4656"
       is_visible="true"
       bendpath="m -192.00142,114.60623 c 2.12577,-0.53066 4.48261,0.85111 7.0057,0"
       prop_scale="1"
       scale_y_rel="false"
       vertical="false"
       bendpath-nodetypes="cc" /><inkscape:path-effect
       effect="bounding_box"
       id="path-effect4654"
       is_visible="true"
       linkedpath=""
       visualbounds="false" /></defs><sodipodi:namedview
     id="base"
     pagecolor="#ffffff"
     bordercolor="#666666"
     borderopacity="1.0"
     inkscape:pageopacity="0.0"
     inkscape:pageshadow="2"
     inkscape:zoom="3.6203867"
     inkscape:cx="85.349999"
     inkscape:cy="96.398542"
     inkscape:document-units="px"
     inkscape:current-layer="g5175"
     showgrid="false"
     fit-margin-top="0"
     fit-margin-left="0"
     fit-margin-right="0"
     fit-margin-bottom="0"
     inkscape:window-width="1920"
     inkscape:window-height="1004"
     inkscape:window-x="0"
     inkscape:window-y="0"
     inkscape:window-maximized="1"
     showguides="false"
     inkscape:object-nodes="true"
     units="px"
     inkscape:snap-page="true"
     inkscape:showpageshadow="2"
     inkscape:pagecheckerboard="0"
     inkscape:deskcolor="#d1d1d1" /><metadata
     id="metadata5"><rdf:RDF><cc:Work
         rdf:about=""><dc:format>image/svg+xml</dc:format><dc:type
           rdf:resource="http://purl.org/dc/dcmitype/StillImage" /></cc:Work></rdf:RDF></metadata><g
     inkscape:label="Layer 1"
     inkscape:groupmode="layer"
     id="layer1"
     transform="translate(98.048812,-95.14345)"><g
       style="stroke-width:0.5"
       transform="matrix(2,0,0,2,-98.048812,95.143449)"
       id="g5175"><rect
         y="-1.110223e-16"
         x="0"
         height="26.458334"
         width="26.458334"
         id="rect5163"
         style="opacity:1;fill:#222222;fill-opacity:1;fill-rule:nonzero;stroke:none;stroke-width:0.25;stroke-linecap:butt;stroke-linejoin:round;stroke-miterlimit:4;stroke-dasharray:none;stroke-dashoffset:0;stroke-opacity:0.90944878;paint-order:normal"
         rx="1.984375"
         ry="1.984375" /><rect
         style="opacity:1;fill:#ffffff;fill-opacity:1;fill-rule:nonzero;stroke:none;stroke-width:0.25;stroke-linecap:butt;stroke-linejoin:round;stroke-miterlimit:4;stroke-dasharray:none;stroke-dashoffset:0;stroke-opacity:0.90944878;paint-order:normal"
         id="rect5165"
         width="23.8125"
         height="23.8125"
         x="1.322917"
         y="1.322917"
         rx="1.3229166"
         ry="1.3229166" /><path
         style="opacity:1;fill:#222222;fill-opacity:1;fill-rule:nonzero;stroke:none;stroke-width:0.24999997;stroke-linecap:butt;stroke-linejoin:round;stroke-miterlimit:4;stroke-dasharray:none;stroke-dashoffset:0;stroke-opacity:0.90944878;paint-order:normal"
         d="m 0.72760492,18.520836 v 4.167188 c 0,1.539081 1.23904398,2.778124 2.77812498,2.778124 H 22.952604 c 1.539081,0 2.778125,-1.239043 2.778125,-2.778124 v -4.167188 z"
         id="rect5205-3-6"
         inkscape:connector-curvature="0" /><text
         xml:space="preserve"
         style="font-size:3.11031px;fill:#222222;fill-opacity:1;stroke-width:0.1296"
         x="1.0612934"
         y="23.194788"
         id="text2040"><tspan
           sodipodi:role="line"
           id="tspan2038"
           style="font-style:normal;font-variant:normal;font-weight:bold;font-stretch:normal;font-family:'Gothic A1';-inkscape-font-specification:'Gothic A1 Bold';fill:#ffffff;fill-opacity:1;stroke-width:0.1296"
           x="1.0612934"
           y="23.194788">PROPERTARIAN</tspan></text><path
         style="fill:#1b1817;stroke:none;stroke-width:0.0163231"
         d="M 12.397303,1.6074658 C 11.615981,1.8423924 10.804559,1.8978166 10.032932,2.214619 7.9744976,3.0597323 6.2868046,4.7126442 5.4399866,6.7749171 c -0.372576,0.907337 -0.597808,1.8928291 -0.597808,2.8728696 0,1.2490773 0.155944,2.4368123 0.671844,3.5910853 1.739244,3.891334 6.1257904,5.797614 10.1667094,4.642916 4.360787,-1.246107 6.900861,-6.08774 5.590016,-10.3886536 C 20.372944,4.5474052 17.831891,2.3432844 14.83193,1.7537938 14.244101,1.6382849 13.702892,1.5841646 13.101679,1.5841646 c -0.221734,0 -0.490608,-0.040968 -0.704376,0.023301 m 0.443206,0.4104204 c 0.741233,-0.087459 1.568195,0.062645 2.285237,0.2354513 3.952121,0.9524378 6.622094,4.8670421 5.992577,8.8961757 -0.378958,2.425322 -1.94996,4.563781 -4.099095,5.72553 -0.986798,0.53344 -2.060598,0.792684 -3.166686,0.924999 -0.673981,0.0806 -1.393994,-0.002 -2.056713,-0.118538 C 8.1655006,17.042845 5.3966036,13.888271 5.2352196,10.202772 5.1859396,9.0775218 5.4322566,7.913063 5.8516916,6.8728558 6.7209996,4.7169894 8.6540196,3.0617792 10.849088,2.3705962 11.496202,2.166838 12.170804,2.0969065 12.840509,2.0178862 M 8.2373876,7.9501818 c 0.269528,-0.08426 0.503699,-0.6456447 0.651293,-0.8814485 0.257024,-0.4106245 0.65459,-0.6009194 0.901395,-1.0446798 0.3106624,-0.5586098 0.1220323,-1.1958645 0.7978424,-1.5006171 0.713288,-0.3216406 1.559544,0.044148 1.765378,0.815046 0.166953,0.6251103 -5.87e-4,1.3654944 -0.302173,1.9261283 C 11.759918,7.8059834 11.425229,8.3021409 11.021526,8.7663379 10.67319,9.1668746 10.2958,9.5399887 9.9488349,9.9416023 9.6059516,10.338482 9.2615006,10.708952 8.9733326,11.149513 c -0.943571,1.442637 -1.460642,4.210157 0.406674,5.194376 0.446176,0.235184 0.9089374,0.385324 1.4037894,0.477549 1.445151,0.269397 3.059932,0.255359 4.505181,0.01913 0.605784,-0.09902 1.245487,-0.15791 1.795543,-0.455219 0.30792,-0.166431 0.453098,-0.384083 0.695365,-0.617569 0.350197,-0.33753 0.74564,-0.616459 0.979583,-1.059828 0.09941,-0.188401 0.100061,-0.388327 0.169532,-0.582082 0.0996,-0.27782 0.409547,-0.48656 0.544899,-0.756414 0.131107,-0.261463 0.04015,-0.496484 0.127418,-0.750863 0.07626,-0.222289 0.255816,-0.581462 0.07019,-0.805285 -0.119452,-0.144003 -0.325221,0.0588 -0.432334,0.125884 -0.330935,0.207271 -0.669705,0.271421 -1.044679,0.139171 -0.751354,-0.26499 -1.32263,-0.902865 -2.089327,-1.157146 -1.204288,-0.399394 -2.12563,0.115012 -3.232011,0.495537 -0.420124,0.144492 -0.846191,0.07176 -1.273203,0.286765 -0.436089,0.219578 -0.808517,0.540197 -1.152086,0.882428 -0.16963,0.168944 -0.3453,0.454043 -0.5781654,0.522339 0,-1.735376 1.1671364,-2.787434 2.1391454,-4.0807792 C 12.871262,7.8799924 13.470157,6.5030065 13.25936,5.0446663 13.095933,3.914029 11.998497,3.0173248 10.849088,3.1907841 10.257244,3.2800977 9.6090526,3.6561563 9.1842596,4.0665653 c -0.386368,0.3732869 -0.727881,0.9111435 -0.714137,1.4677946 0.0066,0.266883 0.178347,0.56256 0.143285,0.816156 -0.07548,0.545682 -0.37602,1.0507846 -0.37602,1.5996659 M 9.0535436,5.142605 c 0.265871,0.044366 0.02344,0.3010636 0,0 z"
         id="path1216" /></g></g></svg>
